<svg xmlns="http://www.w3.org/2000/svg" xmlns:xlink="http://www.w3.org/1999/xlink" width="64" height="64" viewBox="0 0 64 64" id="keyboard"><defs><path id="a" d="M.06 64V.04H64V64z"></path></defs><g fill="none" fill-rule="evenodd"><g><g><mask id="b" fill="#fff"><use xlink:href="#a"></use></mask><path fill="#D5915B" d="M64 32c0 17.673-14.327 32-32 32C14.327 64 0 49.673 0 32 0 14.327 14.327 0 32 0c17.673 0 32 14.327 32 32" mask="url(#b)"></path></g><path fill="#AE7A51" d="M50 45H14c-1.105 0-2-.931-2-2.079V26.079v14.842c0 1.148.895 2.079 2 2.079h36c1.105 0 2-.931 2-2.079v2C52 44.069 51.105 45 50 45"></path><path fill="#F0CB83" d="M52 40.921C52 42.069 51.105 43 50 43H14c-1.105 0-2-.931-2-2.079V24.079c0-1.148.895-2.079 2-2.079h36c1.105 0 2 .931 2 2.079v16.842"></path><path fill="#C1A56E" d="M39.885 41h-15.77c-.892 0-1.615-.672-1.615-1.5s.723-1.5 1.615-1.5h15.77c.892 0 1.615.672 1.615 1.5s-.723 1.5-1.615 1.5M20 41a1.5 1.5 0 11.001-3.001A1.5 1.5 0 0120 41M16 41a1.5 1.5 0 11.001-3.001A1.5 1.5 0 0116 41M48 41a1.5 1.5 0 11.001-3.001A1.5 1.5 0 0148 41M44 41a1.5 1.5 0 11.001-3.001A1.5 1.5 0 0144 41M20 36.85h-4a1.5 1.5 0 010-3h4a1.5 1.5 0 110 3M48 36.85h-4a1.5 1.5 0 010-3h4a1.5 1.5 0 110 3M20 33a1.5 1.5 0 11.001-3.001A1.5 1.5 0 0120 33M16 33a1.5 1.5 0 11.001-3.001A1.5 1.5 0 0116 33M48 33a1.5 1.5 0 11.001-3.001A1.5 1.5 0 0148 33M44 33a1.5 1.5 0 11.001-3.001A1.5 1.5 0 0144 33M20 29.016a1.5 1.5 0 110-3 1.5 1.5 0 010 3M16 29.016a1.5 1.5 0 110-3 1.5 1.5 0 010 3M28 36.85a1.5 1.5 0 11.001-3.001A1.5 1.5 0 0128 36.85M24 36.85a1.5 1.5 0 11.001-3.001A1.5 1.5 0 0124 36.85M28 33a1.5 1.5 0 11.001-3.001A1.5 1.5 0 0128 33M24 33a1.5 1.5 0 11.001-3.001A1.5 1.5 0 0124 33M28 29.016a1.5 1.5 0 110-3 1.5 1.5 0 010 3M24 29.016a1.5 1.5 0 110-3 1.5 1.5 0 010 3M36 36.85a1.5 1.5 0 11.001-3.001A1.5 1.5 0 0136 36.85M32 36.85a1.5 1.5 0 11.001-3.001A1.5 1.5 0 0132 36.85M36 33a1.5 1.5 0 11.001-3.001A1.5 1.5 0 0136 33M32 33a1.5 1.5 0 11.001-3.001A1.5 1.5 0 0132 33M36 29.016a1.5 1.5 0 110-3 1.5 1.5 0 010 3M40 36.85a1.5 1.5 0 11.001-3.001A1.5 1.5 0 0140 36.85M40 33a1.5 1.5 0 11.001-3.001A1.5 1.5 0 0140 33M40 29.016a1.5 1.5 0 110-3 1.5 1.5 0 010 3M32 29.016a1.5 1.5 0 110-3 1.5 1.5 0 010 3M48 29.016a1.5 1.5 0 110-3 1.5 1.5 0 010 3M44 29.016a1.5 1.5 0 110-3 1.5 1.5 0 010 3"></path><path fill="#FFFFFE" d="M39.885 37h-15.77c-.892 0-1.615.672-1.615 1.5s.723 1.5 1.615 1.5h15.77c.892 0 1.615-.672 1.615-1.5s-.723-1.5-1.615-1.5M20 37a1.5 1.5 0 10.001 3.001A1.5 1.5 0 0020 37M16 37a1.5 1.5 0 10.001 3.001A1.5 1.5 0 0016 37M48 37a1.5 1.5 0 10.001 3.001A1.5 1.5 0 0048 37M44 37a1.5 1.5 0 10.001 3.001A1.5 1.5 0 0044 37M20 32.85h-4a1.5 1.5 0 100 3h4a1.5 1.5 0 000-3M48 32.85h-4a1.5 1.5 0 100 3h4a1.5 1.5 0 000-3M20 29a1.5 1.5 0 10.001 3.001A1.5 1.5 0 0020 29M16 32a1.5 1.5 0 10-.001-3.001A1.5 1.5 0 0016 32M48 29a1.5 1.5 0 10.001 3.001A1.5 1.5 0 0048 29M44 32a1.5 1.5 0 10-.001-3.001A1.5 1.5 0 0044 32M20 25.016a1.5 1.5 0 10.001 3.001A1.5 1.5 0 0020 25.016M16 28.016a1.5 1.5 0 100-3 1.5 1.5 0 000 3M28 35.85a1.5 1.5 0 10-.001-3.001A1.5 1.5 0 0028 35.85M24 35.85a1.5 1.5 0 10-.001-3.001A1.5 1.5 0 0024 35.85M28 32a1.5 1.5 0 10-.001-3.001A1.5 1.5 0 0028 32M24 32a1.5 1.5 0 10-.001-3.001A1.5 1.5 0 0024 32M28 28.016a1.5 1.5 0 100-3 1.5 1.5 0 000 3M24 28.016a1.5 1.5 0 100-3 1.5 1.5 0 000 3M36 35.85a1.5 1.5 0 10-.001-3.001A1.5 1.5 0 0036 35.85M32 35.85a1.5 1.5 0 10-.001-3.001A1.5 1.5 0 0032 35.85M36 32a1.5 1.5 0 10-.001-3.001A1.5 1.5 0 0036 32M32 32a1.5 1.5 0 10-.001-3.001A1.5 1.5 0 0032 32M36 28.016a1.5 1.5 0 100-3 1.5 1.5 0 000 3M40 32.85a1.5 1.5 0 100 3 1.5 1.5 0 000-3M40 29a1.5 1.5 0 10.001 3.001A1.5 1.5 0 0040 29M40 25.016a1.5 1.5 0 10.001 3.001A1.5 1.5 0 0040 25.016M32 28.016a1.5 1.5 0 100-3 1.5 1.5 0 000 3M48 28.016a1.5 1.5 0 100-3 1.5 1.5 0 000 3M44 28.016a1.5 1.5 0 100-3 1.5 1.5 0 000 3"></path></g></g></svg>